<svg id="Layer_1" enable-background="new 0 0 512.002 512.002" height="512" viewBox="0 0 512.002 512.002" width="512" xmlns="http://www.w3.org/2000/svg"><g><path d="m260.002 333.002v-120c0-44.183 35.817-80 80-80h-60c-44.183 0-80 35.817-80 80v120c0 44.183 35.817 80 80 80h60c-44.182 0-80-35.817-80-80z" fill="#cee1f2"/><path d="m492.002 512.002h-281c-66.168 0-120-53.832-120-120v-203c0-61.509-30.657-118.444-82.009-152.303-9.221-6.079-11.768-18.484-5.688-27.706 6.081-9.222 18.485-11.768 27.706-5.688 62.611 41.282 99.991 110.702 99.991 185.697v203c0 44.112 35.888 80 80 80h281c26.536 1.057 26.516 38.954 0 40zm20-179v-120c0-55.14-44.859-100-100-100h-132c-55.141 0-100 44.86-100 100v120c0 55.141 44.859 100 100 100h132c55.141 0 100-44.859 100-100zm-100-180c33.084 0 60 26.916 60 60v120c0 33.084-26.916 60-60 60h-132c-33.084 0-60-26.916-60-60v-120c0-33.084 26.916-60 60-60zm-324 334c0-13.807-11.193-25-25-25-33.172 1.321-33.143 48.692 0 50 13.807 0 25-11.192 25-25z" fill="#0023c4"/><path d="m412.002 353.002c-11.046 0-20-8.954-20-20v-71c0-11.028-8.972-20-20-20h-52c-11.028 0-20 8.972-20 20v71c-1.056 26.536-38.953 26.516-40 0v-71c0-33.084 26.916-60 60-60h52c33.084 0 60 26.916 60 60v71c0 11.046-8.954 20-20 20zm0-286c-3.685-88.893-130.336-88.852-134 .001 0 11.045 8.954 19.999 20 19.999s20-8.954 20-20c0-14.888 12.112-27 27-27s27 12.112 27 27c0 11.046 8.954 20 20 20s20-8.954 20-20z" fill="#ff5cf3"/></g></svg>